<svg width="32" height="32" viewBox="0 0 32 32" fill="none" xmlns="http://www.w3.org/2000/svg">
<rect width="32" height="32" rx="4" fill="white"/>
<path d="M22 20C21.212 20 20.501 20.31 19.966 20.807L12.91 16.7C12.96 16.47 13 16.24 13 16C13 15.76 12.96 15.53 12.91 15.3L19.96 11.19C20.5 11.69 21.21 12 22 12C23.66 12 25 10.66 25 9C25 7.34 23.66 6 22 6C20.34 6 19 7.34 19 9C19 9.24 19.04 9.47 19.09 9.7L12.04 13.81C11.5 13.31 10.79 13 10 13C8.34 13 7 14.34 7 16C7 17.66 8.34 19 10 19C10.79 19 11.5 18.69 12.04 18.19L19.088 22.308C19.0317 22.5344 19.0022 22.7667 19 23C19 23.5933 19.1759 24.1734 19.5056 24.6667C19.8352 25.1601 20.3038 25.5446 20.8519 25.7716C21.4001 25.9987 22.0033 26.0581 22.5853 25.9424C23.1672 25.8266 23.7018 25.5409 24.1213 25.1213C24.5409 24.7018 24.8266 24.1672 24.9424 23.5853C25.0581 23.0033 24.9987 22.4001 24.7716 21.8519C24.5446 21.3038 24.1601 20.8352 23.6667 20.5056C23.1734 20.1759 22.5933 20 22 20Z" fill="url(#paint0_linear_457_10629)" fill-opacity="0.2"/>
<defs>
<linearGradient id="paint0_linear_457_10629" x1="25" y1="16" x2="7" y2="16" gradientUnits="userSpaceOnUse">
<stop stop-color="#4D5EF6"/>
<stop offset="1" stop-color="#F64D4D"/>
</linearGradient>
</defs>
</svg>
