<svg width="18" height="16" viewBox="0 0 18 16" fill="none" xmlns="http://www.w3.org/2000/svg">
<g clip-path="url(#clip0_211_8459)">
<path d="M14.9132 9.36778C14.7175 6.98156 13.5311 5.48622 12.4845 4.16665C11.5154 2.94503 10.6784 1.89009 10.6784 0.333904C10.6784 0.208904 10.6037 0.0946543 10.4851 0.037373C10.3662 -0.020252 10.2234 -0.0108145 10.1153 0.062748C8.54344 1.11606 7.23194 2.89134 6.7738 4.58522C6.45576 5.7645 6.41368 7.09025 6.40777 7.96584C4.95619 7.6755 4.62736 5.64212 4.62389 5.61997C4.60754 5.5145 4.53873 5.42272 4.43862 5.37259C4.33748 5.32312 4.21858 5.31953 4.11604 5.36706C4.03992 5.40156 2.24766 6.25437 2.14338 9.6594C2.13608 9.77269 2.13574 9.88631 2.13574 9.9999C2.13574 13.3079 5.01005 15.9995 8.54274 15.9995C8.54761 15.9998 8.55281 16.0005 8.55698 15.9995C8.55839 15.9995 8.55975 15.9995 8.56149 15.9995C12.0855 15.99 14.9497 13.3021 14.9497 9.9999C14.9497 9.83356 14.9132 9.36778 14.9132 9.36778ZM8.54274 15.3329C7.36505 15.3329 6.40707 14.3772 6.40707 13.2025C6.40707 13.1625 6.40674 13.1221 6.40984 13.0726C6.42409 12.5772 6.52457 12.239 6.63475 12.0141C6.84124 12.4294 7.21038 12.8112 7.81 12.8112C8.00675 12.8112 8.16596 12.6622 8.16596 12.4779C8.16596 12.0034 8.1764 11.4559 8.30257 10.9617C8.41486 10.5236 8.68319 10.0575 9.02316 9.68384C9.17436 10.1688 9.46915 10.5614 9.75696 10.9445C10.1689 11.4926 10.5947 12.0593 10.6694 13.0257C10.6739 13.083 10.6785 13.1407 10.6785 13.2025C10.6784 14.3772 9.72042 15.3329 8.54274 15.3329Z" fill="#FF0101"/>
</g>
<defs>
<clipPath id="clip0_211_8459">
<path d="M0 8C0 3.58172 3.58172 0 8 0H9.08532C13.5036 0 17.0853 3.58172 17.0853 8C17.0853 12.4183 13.5036 16 9.08531 16H8C3.58172 16 0 12.4183 0 8Z" fill="white"/>
</clipPath>
</defs>
</svg>
